<?xml version="1.0" standalone="no"?>
<!DOCTYPE svg PUBLIC "-//W3C//DTD SVG 20010904//EN"
 "http://www.w3.org/TR/2001/REC-SVG-20010904/DTD/svg10.dtd">
<svg version="1.0" xmlns="http://www.w3.org/2000/svg"
 width="2000.000000pt" height="2000.000000pt" viewBox="0 0 2000.000000 2000.000000"
 preserveAspectRatio="xMidYMid meet">

<g transform="translate(0.000000,2000.000000) scale(0.100000,-0.100000)"
fill="#ffffff" stroke="none">
<path d="M10222 17579 c-29 -11 -37 -32 -22 -58 9 -19 20 -21 95 -21 63 0 87
4 99 16 22 21 20 51 -4 64 -23 12 -134 11 -168 -1z"/>
<path d="M10642 17578 c-18 -18 -14 -56 7 -68 27 -14 164 -13 179 2 7 7 12 21
12 33 0 37 -20 45 -105 45 -50 0 -86 -5 -93 -12z"/>
<path d="M11076 17554 c-42 -42 -8 -70 95 -79 73 -7 84 -5 96 11 32 44 -1 69
-104 78 -58 5 -75 3 -87 -10z"/>
<path d="M9825 17551 c-53 -9 -65 -17 -65 -46 0 -38 28 -46 115 -35 42 5 81
12 86 15 15 10 10 62 -7 69 -19 7 -74 6 -129 -3z"/>
<path d="M9423 17494 c-89 -15 -93 -18 -93 -54 0 -39 23 -44 115 -29 80 12 99
25 93 60 -4 31 -33 37 -115 23z"/>
<path d="M11501 17492 c-23 -44 9 -64 129 -78 60 -7 85 7 78 43 -5 26 -45 42
-125 49 -65 6 -72 5 -82 -14z"/>
<path d="M11941 17423 c-24 -16 -27 -45 -8 -61 13 -11 136 -42 167 -42 11 0
24 9 30 20 16 30 -3 58 -48 69 -100 27 -121 29 -141 14z"/>
<path d="M8980 17404 c-67 -19 -85 -34 -76 -67 8 -34 29 -37 121 -13 l80 21 0
35 c0 33 -2 35 -35 37 -19 1 -60 -5 -90 -13z"/>
<path d="M12368 17319 c-11 -6 -18 -22 -18 -39 0 -28 4 -31 86 -56 l86 -27 20
20 c14 14 18 27 13 42 -6 19 -33 31 -155 66 -8 2 -23 0 -32 -6z"/>
<path d="M8566 17288 c-74 -23 -101 -53 -76 -83 17 -20 52 -18 130 8 52 18 66
26 68 45 4 27 -14 52 -37 51 -9 0 -47 -10 -85 -21z"/>
<path d="M12764 17164 c-9 -34 6 -48 89 -77 73 -27 103 -26 112 4 10 32 -12
54 -77 77 -86 30 -116 29 -124 -4z"/>
<path d="M8147 17143 c-53 -20 -69 -31 -73 -50 -9 -36 16 -57 58 -49 52 10
143 59 146 79 5 24 -16 47 -42 46 -11 0 -51 -12 -89 -26z"/>
<path d="M13181 17026 c-28 -33 -9 -57 71 -93 64 -27 82 -32 99 -23 14 8 19
19 17 38 -2 22 -14 32 -62 55 -77 37 -109 43 -125 23z"/>
<path d="M7747 16978 c-71 -33 -92 -62 -67 -93 18 -22 40 -19 114 16 76 36 92
56 70 87 -20 28 -35 27 -117 -10z"/>
<path d="M13572 16844 c-18 -32 0 -55 69 -90 82 -41 106 -43 121 -9 15 32 1
48 -74 86 -65 33 -103 37 -116 13z"/>
<path d="M7355 16782 c-75 -39 -90 -65 -59 -96 19 -20 28 -17 117 30 52 27 67
40 67 58 0 26 -17 46 -39 46 -9 0 -47 -17 -86 -38z"/>
<path d="M13962 16648 c-31 -31 -11 -57 85 -109 69 -38 95 -34 101 14 3 22 -6
31 -67 66 -73 43 -99 49 -119 29z"/>
<path d="M6995 16579 c-62 -39 -95 -68 -95 -86 0 -7 11 -20 25 -29 23 -15 27
-14 97 28 78 47 97 79 62 105 -25 18 -32 17 -89 -18z"/>
<path d="M14336 16421 c-11 -12 -15 -27 -12 -39 8 -24 124 -102 153 -102 25 0
46 23 41 47 -3 18 -132 113 -153 113 -7 0 -20 -9 -29 -19z"/>
<path d="M4871 16381 c-40 -10 -117 -40 -170 -66 -172 -86 -314 -254 -376
-443 l-17 -52 -46 6 c-112 14 -275 -48 -365 -140 -146 -149 -178 -366 -79
-550 35 -67 126 -157 188 -189 119 -60 66 -58 1170 -55 l1009 3 62 23 c182 68
321 220 368 399 19 74 19 223 0 298 -48 182 -207 344 -393 401 -126 38 -294
23 -412 -35 -34 -17 -63 -31 -65 -31 -2 0 -18 26 -35 58 -98 173 -243 293
-435 358 -108 36 -292 43 -404 15z m307 -86 c142 -29 285 -115 384 -233 21
-26 59 -88 84 -139 25 -50 52 -94 61 -97 10 -4 41 10 77 34 97 62 165 83 276
83 72 0 109 -5 154 -22 129 -46 224 -134 285 -261 35 -73 36 -78 36 -195 0
-117 -1 -122 -36 -195 -45 -95 -128 -186 -207 -228 -120 -64 -91 -63 -1170
-60 l-977 3 -66 31 c-90 43 -142 93 -183 174 -44 88 -54 165 -31 251 51 200
231 321 429 288 83 -14 88 -10 110 79 50 198 211 383 394 452 132 50 249 61
380 35z"/>
<path d="M6645 16344 c-93 -62 -119 -110 -74 -134 17 -10 28 -7 62 17 53 36
107 88 107 101 0 14 -29 42 -43 42 -7 0 -30 -12 -52 -26z"/>
<path d="M14708 16183 c-19 -5 -34 -45 -24 -62 15 -24 126 -101 145 -101 13 0
26 10 33 26 12 25 10 29 -37 69 -61 53 -95 73 -117 68z"/>
<path d="M11502 16141 c-11 -6 -13 -49 -12 -192 0 -101 4 -187 9 -192 5 -5 21
-7 37 -5 l29 3 3 184 c2 127 -1 188 -9 197 -13 16 -37 18 -57 5z"/>
<path d="M11058 15959 c-37 -21 -20 -52 95 -168 61 -63 121 -120 133 -128 27
-17 53 -7 61 24 5 23 -10 41 -124 154 -71 71 -134 129 -139 129 -5 0 -17 -5
-26 -11z"/>
<path d="M11838 15843 c-132 -131 -150 -161 -109 -183 11 -5 23 -10 27 -10 16
0 264 255 264 271 0 20 -26 49 -42 49 -6 0 -69 -57 -140 -127z"/>
<path d="M15032 15898 c-25 -25 -12 -56 44 -107 57 -52 91 -63 114 -36 16 19
6 47 -28 76 -95 83 -107 90 -130 67z"/>
<path d="M9916 15850 c-188 -57 -201 -321 -18 -402 l42 -19 0 -444 0 -445
-2308 0 c-1831 0 -2312 -3 -2325 -12 -16 -12 -17 -68 -19 -692 l-3 -679 -50
-27 c-74 -40 -108 -94 -113 -179 -6 -97 29 -160 113 -204 92 -47 214 -13 273
75 24 36 27 51 27 119 0 70 -3 81 -30 121 -21 28 -49 52 -83 68 l-52 25 0 648
0 647 2285 0 2285 0 0 -363 c0 -269 3 -366 12 -375 9 -9 304 -12 1265 -12
l1253 0 0 -1131 0 -1130 -37 -15 c-110 -45 -165 -178 -120 -286 45 -106 186
-160 287 -108 81 41 120 105 120 195 0 89 -50 165 -132 200 l-38 15 0 1130 0
1130 1075 0 1075 0 0 -359 0 -359 -39 -15 c-46 -19 -99 -70 -117 -114 -30 -70
-11 -178 39 -231 60 -65 174 -85 252 -45 79 41 115 102 115 196 0 56 -4 71
-32 113 -22 31 -51 57 -83 74 l-50 27 -3 388 c-1 266 -6 392 -13 402 -9 11
-206 13 -1115 13 l-1104 0 0 365 0 365 -26 10 c-16 6 -484 10 -1265 10 l-1239
0 0 445 0 445 38 15 c81 34 133 113 133 200 0 143 -137 246 -275 205z m149
-113 c61 -61 52 -155 -19 -198 -60 -37 -133 -20 -173 40 -57 85 4 191 109 191
43 0 55 -5 83 -33z m2405 -1617 l0 -330 -1225 0 -1225 0 0 330 0 330 1225 0
1225 0 0 -330z m-7090 -1065 c69 -35 93 -102 61 -169 -36 -74 -117 -95 -187
-49 -28 18 -54 68 -54 104 0 39 32 89 69 109 44 23 73 25 111 5z m9427 -181
c31 -20 63 -72 63 -102 0 -38 -31 -93 -64 -113 -62 -38 -143 -13 -177 54 -58
113 72 231 178 161z m-2226 -1547 c39 -26 66 -89 56 -129 -26 -101 -156 -135
-221 -58 -32 39 -40 77 -24 125 26 78 120 109 189 62z"/>
<path d="M15348 15599 c-33 -19 -21 -52 40 -112 61 -61 94 -71 112 -37 14 27
4 44 -64 108 -58 55 -62 57 -88 41z"/>
<path d="M10866 15504 c-9 -8 -16 -22 -16 -29 0 -7 7 -21 16 -29 13 -13 45
-16 189 -16 144 0 176 3 189 16 21 20 20 37 -2 57 -27 24 -352 25 -376 1z"/>
<path d="M11816 15504 c-9 -8 -16 -22 -16 -29 0 -7 7 -21 16 -29 13 -13 44
-16 187 -16 95 0 177 4 183 8 19 13 23 39 8 61 -14 20 -23 21 -189 21 -144 0
-176 -3 -189 -16z"/>
<path d="M11170 15174 c-134 -132 -152 -162 -110 -184 28 -15 39 -7 173 128
124 124 133 141 89 170 -22 14 -26 11 -152 -114z"/>
<path d="M11732 15284 c-12 -8 -22 -23 -22 -33 0 -16 237 -262 259 -269 6 -2
19 2 30 8 43 22 26 51 -107 183 -71 70 -131 127 -133 127 -3 0 -15 -7 -27 -16z"/>
<path d="M15632 15268 c-7 -7 -12 -19 -12 -29 0 -21 90 -136 113 -145 20 -6
57 20 57 41 0 7 -23 42 -51 79 -52 67 -80 81 -107 54z"/>
<path d="M11502 15191 c-16 -9 -19 -368 -4 -383 5 -5 22 -8 38 -6 l29 3 3 184
c2 127 -1 188 -9 197 -13 16 -37 18 -57 5z"/>
<path d="M15892 14918 c-19 -19 -15 -34 34 -108 48 -71 74 -86 102 -58 20 20
14 40 -33 111 -46 68 -74 84 -103 55z"/>
<path d="M16122 14548 c-18 -18 -16 -26 25 -106 42 -80 74 -101 100 -66 17 24
12 46 -30 120 -34 61 -67 80 -95 52z"/>
<path d="M16310 14150 c-8 -15 -4 -35 16 -87 15 -37 35 -76 44 -87 22 -23 58
-14 65 17 6 21 -35 138 -57 165 -16 19 -56 14 -68 -8z"/>
<path d="M7076 13814 c-14 -14 -16 -76 -16 -539 0 -463 2 -525 16 -539 19 -20
25 -20 50 -2 18 14 19 31 19 541 0 510 -1 527 -19 541 -25 18 -31 18 -50 -2z"/>
<path d="M3983 13713 c-7 -2 -13 -17 -13 -32 0 -20 21 -48 90 -116 l90 -90
-90 -90 c-89 -89 -104 -117 -78 -143 23 -23 43 -11 135 80 l93 93 93 -93 c95
-95 126 -110 147 -73 5 11 10 24 10 29 0 5 -40 49 -90 98 -49 48 -90 93 -90
99 0 6 41 51 90 100 89 89 101 110 78 133 -26 26 -54 11 -145 -80 l-93 -93
-93 93 c-87 87 -104 98 -134 85z"/>
<path d="M16510 13603 c-59 -10 -153 -47 -207 -82 -68 -44 -149 -128 -183
-188 -13 -24 -27 -43 -31 -43 -3 0 -26 9 -50 19 -153 68 -332 38 -459 -76
-178 -160 -187 -442 -18 -613 29 -29 79 -64 125 -87 l77 -38 760 0 761 0 59
29 c78 38 131 93 169 174 26 56 31 77 30 141 -1 194 -135 336 -329 349 l-72 5
-13 44 c-17 62 -95 179 -152 229 -122 108 -311 163 -467 137z m221 -99 c161
-47 289 -182 330 -347 14 -57 34 -68 93 -55 43 10 118 -2 165 -27 47 -24 117
-109 131 -160 15 -54 8 -140 -14 -184 -25 -48 -75 -100 -120 -124 l-41 -22
-750 0 -750 0 -56 28 c-63 30 -125 92 -161 159 -20 37 -23 57 -23 143 0 86 4
107 25 150 33 67 99 131 168 163 84 39 193 38 279 -2 35 -16 68 -35 74 -42 6
-8 22 -14 35 -14 18 0 29 14 60 77 61 127 172 222 304 259 64 18 187 17 251
-2z"/>
<path d="M6832 13308 c-9 -9 -12 -87 -12 -290 0 -271 0 -278 21 -288 16 -9 25
-8 40 6 18 16 19 34 19 285 0 230 -2 270 -16 283 -19 19 -36 20 -52 4z"/>
<path d="M7312 13308 c-9 -9 -12 -87 -12 -290 0 -271 0 -278 21 -288 16 -9 25
-8 40 6 18 16 19 34 19 281 0 163 -4 272 -10 284 -12 21 -40 25 -58 7z"/>
<path d="M10796 13298 c-14 -19 -16 -74 -16 -393 0 -319 2 -374 16 -393 17
-24 43 -29 62 -10 17 17 17 789 0 806 -19 19 -45 14 -62 -10z"/>
<path d="M13782 13208 c-9 -9 -12 -90 -12 -304 0 -253 2 -295 16 -308 20 -21
30 -20 54 4 19 19 20 33 20 301 0 174 -4 288 -10 300 -12 21 -50 25 -68 7z"/>
<path d="M10272 13138 c-13 -13 -18 -544 -4 -564 14 -21 45 -25 63 -8 18 16
19 37 19 281 0 163 -4 272 -10 284 -12 21 -50 25 -68 7z"/>
<path d="M14272 13054 c-22 -15 -22 -20 -22 -227 0 -117 4 -217 8 -223 15 -22
42 -24 62 -4 19 19 20 32 18 231 -3 201 -4 212 -23 225 -18 12 -24 11 -43 -2z"/>
<path d="M10528 12939 c-16 -9 -18 -29 -18 -189 0 -169 1 -180 20 -190 14 -8
26 -8 40 0 19 10 20 21 20 190 0 167 -1 180 -19 190 -23 12 -22 12 -43 -1z"/>
<path d="M14032 12888 c-8 -8 -12 -56 -12 -150 0 -127 1 -138 20 -148 14 -8
26 -8 40 0 19 10 20 21 20 150 0 127 -2 140 -19 150 -25 13 -34 13 -49 -2z"/>
<path d="M9845 12469 c-102 -14 -289 -57 -370 -86 -209 -75 -366 -174 -526
-333 -388 -384 -575 -994 -596 -1945 -16 -737 85 -1329 300 -1759 298 -599
798 -893 1504 -885 244 2 430 31 622 95 657 219 1011 793 1118 1814 22 210 25
926 5 1120 -75 722 -256 1197 -584 1536 -59 61 -147 139 -196 174 -168 120
-394 213 -622 256 -101 19 -546 28 -655 13z m666 -148 c295 -64 505 -176 699
-370 314 -315 489 -776 562 -1481 8 -81 13 -266 13 -530 -1 -434 -10 -561 -60
-861 -156 -929 -594 -1402 -1369 -1478 -218 -22 -476 -7 -661 38 -526 128
-889 515 -1070 1142 -206 713 -185 1905 45 2564 47 135 150 339 220 437 220
309 530 490 944 553 144 22 552 14 677 -14z"/>
<path d="M10050 11447 c-201 -45 -322 -249 -374 -632 -31 -231 -39 -404 -39
-860 1 -472 12 -687 49 -899 67 -396 209 -571 459 -568 191 2 329 131 400 377
63 218 85 448 92 955 14 1058 -78 1481 -350 1605 -64 30 -163 39 -237 22z
m196 -150 c105 -55 180 -220 218 -482 33 -222 41 -392 40 -855 0 -552 -18
-796 -75 -1025 -37 -147 -110 -259 -194 -299 -48 -23 -156 -21 -203 3 -198
102 -265 432 -266 1311 0 454 8 628 40 862 44 319 139 486 289 508 51 7 111
-2 151 -23z"/>
<path d="M6171 12183 c-89 -131 -284 -416 -433 -633 -148 -217 -321 -469 -383
-560 -62 -91 -320 -469 -574 -840 l-461 -674 0 -513 0 -513 950 0 950 0 0
-465 0 -465 700 0 700 0 0 465 0 465 265 0 265 0 -2 543 -3 542 -262 3 -263 2
0 1440 0 1440 -643 0 -644 0 -162 -237z m1319 -1333 l0 -1440 265 0 265 0 0
-415 0 -415 -265 0 -265 0 0 -465 0 -465 -567 2 -568 3 -3 463 -2 462 -950 0
-950 0 0 426 0 426 133 194 c72 108 152 224 177 259 25 35 143 207 262 382
119 175 249 365 289 423 39 58 178 260 307 450 130 190 285 417 346 505 60 88
172 252 250 365 77 113 151 222 165 242 l26 37 543 1 542 0 0 -1440z"/>
<path d="M6143 10602 c-97 -198 -147 -278 -531 -847 l-232 -345 483 0 484 0 7
513 c8 636 15 767 45 825 l21 42 -92 -1 -93 0 -92 -187z m79 -599 l-5 -463
-293 0 c-162 0 -294 2 -294 4 0 1 109 165 241 362 231 343 349 532 349 556 0
6 2 9 4 7 2 -2 1 -212 -2 -466z"/>
<path d="M14052 12273 c-55 -82 -138 -202 -183 -268 -614 -898 -1188 -1737
-1285 -1880 -41 -60 -158 -231 -260 -380 l-184 -269 0 -513 0 -513 948 -2 947
-3 3 -462 2 -463 700 0 700 0 0 465 0 465 265 0 265 0 -2 543 -3 542 -262 3
-263 2 0 1440 0 1440 -643 0 -644 0 -101 -147z m1258 -1423 l0 -1440 260 0
260 0 0 -415 0 -415 -257 -2 -258 -3 -3 -462 -2 -463 -570 0 -570 0 0 465 0
465 -950 0 -950 0 0 428 1 427 197 287 c108 158 342 500 520 760 178 260 465
680 638 933 173 253 379 553 457 668 l141 207 543 0 543 0 0 -1440z"/>
<path d="M13973 10622 c-107 -219 -136 -267 -481 -778 l-292 -434 485 0 485 0
0 378 c0 207 5 494 11 637 10 238 13 264 34 313 l24 52 -92 -1 -92 0 -82 -167z
m69 -624 l-5 -458 -293 0 c-162 0 -294 2 -294 5 0 3 24 40 53 83 169 246 461
688 498 754 23 43 43 77 44 75 1 -1 0 -208 -3 -459z"/>
<path d="M1858 12369 c-21 -12 -24 -49 -6 -67 9 -9 156 -12 599 -12 521 0 589
2 603 16 9 8 16 22 16 29 0 7 -7 21 -16 29 -14 14 -81 16 -597 16 -377 -1
-588 -4 -599 -11z"/>
<path d="M3308 12369 c-24 -13 -23 -56 1 -69 30 -16 2443 -14 2459 2 17 17 15
44 -4 62 -14 14 -139 16 -1227 16 -805 -1 -1218 -4 -1229 -11z"/>
<path d="M16712 11868 c-9 -9 -12 -79 -12 -254 0 -202 2 -244 15 -254 21 -17
61 -4 69 22 3 13 6 120 6 238 0 179 -3 219 -16 238 -17 24 -43 29 -62 10z"/>
<path d="M1282 11848 c-7 -7 -12 -19 -12 -28 0 -36 20 -40 192 -40 l168 0 6
25 c12 50 -4 55 -180 55 -113 0 -166 -4 -174 -12z"/>
<path d="M1850 11845 c-7 -8 -10 -25 -6 -40 l6 -25 1756 0 c1916 0 1775 -4
1760 55 l-6 25 -1749 0 c-1535 0 -1750 -2 -1761 -15z"/>
<path d="M16086 11604 c-3 -9 -6 -23 -6 -33 0 -21 330 -351 352 -351 18 0 48
31 48 50 0 8 -75 89 -167 182 -133 134 -173 168 -194 168 -15 0 -29 -7 -33
-16z"/>
<path d="M17177 11452 c-176 -177 -192 -201 -141 -224 24 -11 32 -5 190 153
91 90 170 172 175 182 14 24 -6 57 -34 57 -15 0 -73 -51 -190 -168z"/>
<path d="M2202 11308 c-18 -18 -14 -56 7 -68 13 -7 340 -10 990 -10 868 0 971
2 985 16 19 18 21 45 4 62 -17 17 -1969 17 -1986 0z"/>
<path d="M4593 11313 c-21 -8 -16 -61 6 -73 12 -6 103 -10 226 -10 123 0 214
4 226 10 21 12 25 50 7 68 -9 9 -73 12 -232 11 -122 0 -227 -3 -233 -6z"/>
<path d="M15832 10988 c-16 -16 -15 -43 2 -57 9 -8 86 -11 256 -9 219 3 244 5
254 21 8 12 8 22 0 35 -10 15 -35 17 -255 20 -182 2 -248 -1 -257 -10z"/>
<path d="M17144 10986 c-3 -8 -4 -25 -2 -38 l3 -23 232 -5 c128 -3 243 -3 255
0 26 7 36 43 18 66 -18 21 -498 21 -506 0z"/>
<path d="M16247 10522 c-171 -171 -190 -199 -148 -222 11 -5 23 -10 27 -10 15
0 354 345 354 360 0 22 -20 40 -45 40 -13 0 -79 -59 -188 -168z"/>
<path d="M17017 10683 c-4 -3 -7 -18 -7 -33 0 -20 36 -61 168 -193 93 -92 174
-167 180 -167 7 0 21 9 32 20 11 11 20 25 20 32 0 6 -75 87 -167 180 -132 132
-173 168 -193 168 -15 0 -30 -3 -33 -7z"/>
<path d="M16723 10559 c-23 -8 -23 -8 -23 -252 0 -257 2 -267 47 -267 16 0 27
8 33 26 13 33 13 450 0 473 -13 24 -30 30 -57 20z"/>
<path d="M2866 10544 c-66 -16 -86 -28 -86 -54 0 -38 26 -44 103 -26 98 24
118 44 81 80 -18 19 -21 19 -98 0z"/>
<path d="M2493 10342 c-57 -51 -67 -84 -33 -102 24 -13 28 -11 98 49 42 36 52
51 50 71 -2 20 -9 26 -33 27 -24 2 -41 -7 -82 -45z"/>
<path d="M2236 10028 c-45 -75 -46 -113 -2 -113 25 0 35 9 68 64 47 76 46 111
-1 111 -24 0 -34 -9 -65 -62z"/>
<path d="M2087 9708 c-19 -29 -47 -112 -47 -138 0 -22 32 -43 54 -34 22 9 72
152 59 173 -16 26 -50 25 -66 -1z"/>
<path d="M2868 9549 c-16 -9 -18 -29 -18 -194 0 -174 1 -185 20 -195 14 -8 26
-8 40 0 19 10 20 21 20 193 0 207 -7 229 -62 196z"/>
<path d="M2412 9358 c-25 -25 -8 -52 113 -173 120 -121 147 -139 173 -113 28
28 10 55 -111 176 -120 120 -148 137 -175 110z"/>
<path d="M3198 9253 c-119 -118 -141 -151 -118 -178 27 -33 54 -16 178 108
120 120 137 148 110 175 -26 26 -54 9 -170 -105z"/>
<path d="M1987 9325 c-16 -16 -34 -156 -23 -174 10 -15 51 -14 64 2 6 7 14 48
18 91 5 62 4 80 -7 87 -20 13 -36 11 -52 -6z"/>
<path d="M17138 9119 c-36 -20 -20 -52 74 -146 l93 -93 -93 -93 c-96 -96 -110
-126 -72 -147 28 -15 41 -6 140 94 l84 86 97 -95 c53 -52 101 -95 107 -95 16
0 42 29 42 48 0 9 -41 58 -92 109 l-92 93 92 93 c51 52 92 101 92 109 0 8 -9
23 -19 32 -26 23 -37 16 -141 -88 l-84 -86 -97 95 c-53 52 -100 95 -105 95 -5
0 -17 -5 -26 -11z"/>
<path d="M1950 8915 c-17 -20 -5 -154 15 -174 12 -12 19 -12 41 -2 27 12 27
12 21 92 -4 44 -9 84 -12 90 -9 14 -51 11 -65 -6z"/>
<path d="M2220 8900 c-8 -14 -8 -26 0 -40 10 -20 19 -20 197 -18 164 3 187 5
197 21 8 12 8 22 0 35 -10 15 -33 17 -197 20 -178 2 -187 2 -197 -18z"/>
<path d="M3170 8900 c-8 -14 -8 -26 0 -40 10 -20 19 -20 197 -18 164 3 187 5
197 21 8 12 8 22 0 35 -10 15 -33 17 -197 20 -178 2 -187 2 -197 -18z"/>
<path d="M2528 8583 c-119 -118 -141 -151 -118 -178 27 -33 54 -16 178 108
120 120 137 148 110 175 -26 26 -54 9 -170 -105z"/>
<path d="M3082 8688 c-25 -25 -8 -52 112 -173 121 -121 148 -139 174 -113 28
28 10 55 -111 176 -120 120 -148 137 -175 110z"/>
<path d="M2868 8599 c-16 -9 -18 -29 -18 -194 0 -174 1 -185 20 -195 14 -8 26
-8 40 0 19 10 20 21 20 193 0 207 -7 229 -62 196z"/>
<path d="M2000 8514 c-11 -12 -10 -28 4 -88 18 -77 29 -96 58 -96 34 0 41 36
22 108 -9 37 -22 73 -27 80 -13 17 -42 15 -57 -4z"/>
<path d="M2138 8139 c-25 -14 -22 -35 15 -103 37 -69 58 -86 85 -70 28 18 24
45 -16 114 -39 67 -54 77 -84 59z"/>
<path d="M15816 8064 c-19 -18 -21 -45 -4 -62 9 -9 167 -12 649 -12 566 0 639
2 653 16 9 8 16 22 16 29 0 7 -7 21 -16 29 -14 14 -86 16 -649 16 -563 0 -635
-2 -649 -16z"/>
<path d="M17277 8062 c-21 -23 -21 -36 -1 -56 14 -14 73 -16 498 -16 507 0
506 0 506 45 0 45 1 45 -505 45 -454 0 -483 -1 -498 -18z"/>
<path d="M3770 7811 c-5 -11 -10 -23 -10 -27 0 -4 41 -49 92 -100 l92 -94 -92
-94 c-51 -51 -92 -100 -92 -108 0 -18 31 -48 50 -48 7 0 55 41 106 92 l94 92
94 -92 c93 -92 111 -103 134 -80 29 29 13 61 -73 144 -47 46 -85 87 -85 91 0
5 38 47 85 93 74 74 85 89 83 115 -2 25 -8 31 -31 33 -24 3 -43 -11 -120 -86
l-92 -89 -84 88 c-67 70 -91 89 -113 89 -17 0 -31 -7 -38 -19z"/>
<path d="M2357 7803 c-4 -3 -7 -18 -7 -33 0 -20 15 -41 54 -79 60 -56 59 -55
87 -41 33 18 23 52 -34 108 -48 47 -83 63 -100 45z"/>
<path d="M15810 7545 c-19 -23 -4 -62 26 -69 29 -8 196 -6 226 2 23 6 34 47
18 67 -10 12 -39 15 -135 15 -96 0 -125 -3 -135 -15z"/>
<path d="M16220 7545 c-17 -21 -9 -48 20 -62 20 -10 308 -13 1371 -13 1304 0
1348 1 1370 19 21 16 22 22 11 45 l-12 26 -1374 0 c-1188 0 -1375 -2 -1386
-15z"/>
<path d="M2795 7010 c-149 -30 -308 -146 -376 -275 l-23 -42 -52 24 c-254 116
-549 -46 -595 -326 -35 -219 117 -435 336 -481 33 -7 299 -10 775 -8 l725 3
57 27 c217 101 275 379 117 553 -67 72 -140 108 -238 115 -69 5 -75 7 -81 30
-31 117 -163 272 -280 328 -118 57 -247 75 -365 52z m317 -128 c48 -23 101
-59 125 -84 56 -58 109 -147 123 -211 7 -29 17 -57 22 -64 6 -7 40 -11 96 -10
76 1 93 -2 138 -25 118 -61 171 -191 132 -320 -17 -56 -87 -131 -148 -157 -49
-21 -51 -21 -782 -19 l-733 3 -56 26 c-72 34 -134 96 -168 168 -22 47 -26 70
-26 141 1 109 26 169 101 240 77 73 129 94 234 94 86 1 132 -14 221 -71 37
-23 53 -13 83 53 59 129 153 215 284 261 58 20 81 23 169 20 97 -3 108 -6 185
-45z"/>
<path d="M15812 7008 c-18 -18 -14 -56 7 -68 13 -7 362 -10 1059 -10 994 0
1040 1 1055 18 21 23 21 36 1 56 -14 14 -124 16 -1063 16 -801 0 -1050 -3
-1059 -12z"/>
<path d="M18212 7008 c-18 -18 -14 -56 7 -68 11 -6 87 -10 175 -10 163 0 186
6 186 49 0 37 -19 41 -190 41 -116 0 -170 -4 -178 -12z"/>
<path d="M4442 6958 c-17 -17 -17 -1779 0 -1796 9 -9 1247 -12 5509 -12 l5498
0 15 22 c14 20 16 121 16 894 0 831 -1 872 -18 887 -17 16 -414 17 -5513 17
-4261 0 -5498 -3 -5507 -12z m10936 -900 l-3 -813 -5425 0 -5425 0 -3 813 -2
812 5430 0 5430 0 -2 -812z"/>
<path d="M10913 6569 c-95 -16 -181 -58 -243 -118 -96 -95 -138 -200 -147
-376 -20 -392 184 -611 552 -592 288 15 442 162 476 452 26 220 -35 428 -154
531 -111 94 -298 134 -484 103z m227 -257 c71 -38 110 -139 110 -291 0 -140
-41 -240 -113 -278 -43 -23 -151 -22 -195 1 -45 23 -89 87 -103 150 -6 30 -10
99 -7 162 6 164 48 243 148 273 45 13 115 6 160 -17z"/>
<path d="M7730 6035 l0 -535 315 0 315 0 0 120 0 120 -170 0 -170 0 0 95 0 95
155 0 155 0 0 115 0 115 -155 0 -155 0 0 90 0 90 170 0 170 0 0 115 0 115
-315 0 -315 0 0 -535z"/>
<path d="M8548 6564 c-5 -4 -8 -245 -8 -536 l0 -528 145 0 145 0 2 193 3 192
34 0 c34 0 36 -2 145 -190 l111 -190 163 -3 c89 -1 162 0 162 4 0 4 -68 108
-152 232 -106 158 -147 227 -137 231 7 2 37 26 65 53 72 68 97 129 98 235 0
71 -4 89 -30 139 -36 72 -92 116 -182 145 -60 20 -94 23 -312 27 -135 2 -248
0 -252 -4z m428 -235 c36 -13 59 -57 57 -107 -3 -81 -54 -122 -153 -122 l-50
0 0 118 c0 65 3 122 8 126 8 9 104 -1 138 -15z"/>
<path d="M9550 6036 l0 -536 145 0 145 0 0 195 0 195 34 0 c36 0 37 0 225
-327 l36 -62 163 -1 c89 0 162 2 162 5 0 3 -68 107 -152 232 -135 201 -149
227 -133 235 36 21 97 82 120 122 57 100 50 256 -17 346 -29 40 -84 75 -160
102 -57 20 -86 22 -315 26 l-253 4 0 -536z m391 304 c70 -13 99 -44 99 -106 0
-90 -49 -134 -150 -134 l-50 0 0 125 c0 143 -7 135 101 115z"/>
<path d="M11740 6035 l0 -535 145 0 145 0 0 195 0 195 34 0 c34 0 35 -2 148
-195 l113 -195 163 0 c89 0 162 2 162 5 0 3 -69 107 -152 231 -143 210 -152
226 -133 236 11 6 43 34 71 63 63 63 87 127 86 227 -1 123 -56 207 -167 259
-85 40 -160 49 -402 49 l-213 0 0 -535z m442 289 c35 -18 48 -43 48 -94 0 -84
-52 -130 -149 -130 l-51 0 0 126 0 127 62 -7 c34 -4 74 -14 90 -22z"/>
<path d="M17028 6285 c-91 -23 -158 -62 -228 -134 -47 -47 -74 -86 -95 -133
l-28 -66 -51 -6 c-28 -3 -68 -11 -88 -16 -55 -16 -129 -79 -163 -141 -27 -48
-30 -63 -30 -139 0 -68 4 -94 23 -131 27 -55 83 -113 137 -142 40 -22 44 -22
695 -22 l655 0 60 29 c73 36 135 99 172 174 24 50 27 68 27 152 0 109 -15 152
-82 237 -31 39 -60 61 -117 89 -70 34 -84 38 -158 38 -60 0 -96 -6 -136 -22
-30 -12 -55 -21 -56 -19 0 1 -18 28 -39 59 -80 121 -213 194 -365 203 -48 3
-97 -1 -133 -10z m207 -89 c109 -29 197 -102 251 -207 18 -37 41 -69 50 -73
11 -4 31 3 55 19 42 30 117 55 164 55 93 0 202 -68 248 -154 17 -33 22 -58 22
-126 0 -75 -3 -91 -27 -132 -37 -62 -97 -111 -159 -131 -45 -15 -120 -17 -636
-17 -410 0 -597 3 -624 11 -158 48 -201 256 -75 366 47 42 97 57 167 49 53 -5
60 -4 73 17 7 12 17 39 20 59 9 53 82 156 141 201 91 68 219 93 330 63z"/>
<path d="M16853 4898 c-76 -67 -84 -85 -54 -109 13 -11 27 -19 31 -19 16 0
129 101 135 121 7 22 -19 59 -41 59 -8 0 -40 -23 -71 -52z"/>
<path d="M14712 4808 c-16 -16 -15 -53 1 -65 21 -16 127 -53 153 -53 28 0 49
33 36 57 -10 16 -133 71 -162 72 -9 1 -21 -4 -28 -11z"/>
<path d="M16487 4676 c-78 -30 -94 -47 -78 -82 10 -23 16 -26 44 -21 49 8 146
54 154 73 9 24 -10 49 -38 51 -13 1 -50 -8 -82 -21z"/>
<path d="M15122 4668 c-36 -36 -1 -69 98 -92 73 -16 100 -9 100 28 0 32 -14
41 -86 60 -74 19 -96 20 -112 4z"/>
<path d="M15558 4589 c-22 -12 -24 -52 -4 -68 8 -7 52 -15 99 -18 80 -5 85 -4
96 16 20 37 -1 59 -66 66 -32 3 -69 8 -83 10 -14 3 -33 0 -42 -6z"/>
<path d="M16050 4583 c-52 -5 -70 -17 -70 -48 0 -38 20 -46 104 -38 79 6 106
19 106 52 0 39 -21 44 -140 34z"/>
<path d="M6480 4365 l0 -185 25 0 c25 0 25 1 25 90 0 77 3 93 20 110 24 24 48
25 78 4 20 -14 22 -23 22 -110 0 -94 0 -94 25 -94 25 0 25 1 25 84 0 45 -5 97
-11 115 -20 58 -95 76 -141 34 -17 -15 -18 -12 -18 60 0 75 -1 77 -25 77 l-25
0 0 -185z"/>
<path d="M9230 4473 c0 -72 -1 -75 -17 -60 -30 26 -68 30 -108 12 -43 -21 -68
-66 -67 -121 1 -101 78 -152 162 -109 27 14 30 14 30 0 0 -9 9 -15 23 -15 l22
0 -3 185 c-3 176 -4 185 -22 185 -18 0 -20 -7 -20 -77z m-21 -99 c23 -29 28
-92 10 -125 -15 -29 -57 -42 -90 -29 -46 20 -63 85 -34 140 25 48 82 55 114
14z"/>
<path d="M10850 4473 l0 -76 -21 19 c-34 31 -93 25 -132 -14 -30 -30 -32 -37
-32 -98 0 -61 2 -67 33 -95 40 -36 96 -39 136 -8 15 12 26 17 25 12 -4 -22 3
-33 21 -33 19 0 20 7 20 185 l0 185 -25 0 c-24 0 -25 -2 -25 -77z m-20 -95
c30 -33 28 -111 -5 -143 -29 -30 -54 -31 -88 -5 -63 50 -32 170 43 170 17 0
38 -9 50 -22z"/>
<path d="M6182 4513 c2 -14 15 -19 56 -21 l52 -3 0 -155 0 -154 25 0 25 0 0
155 0 155 50 0 c43 0 50 3 50 20 0 19 -7 20 -131 20 -119 0 -130 -2 -127 -17z"/>
<path d="M13196 4513 c-4 -9 0 -23 9 -32 13 -14 17 -14 31 1 9 9 14 24 11 32
-8 21 -43 20 -51 -1z"/>
<path d="M8648 4503 c-12 -3 -18 -14 -18 -33 0 -19 -6 -29 -20 -33 -26 -7 -26
-37 -1 -37 17 0 19 -10 23 -96 3 -108 14 -124 76 -124 26 0 33 4 30 17 -2 9
-14 20 -28 23 -24 6 -25 9 -28 93 l-3 87 31 0 c23 0 30 4 30 20 0 16 -7 20
-30 20 -27 0 -30 3 -30 29 0 33 -6 39 -32 34z"/>
<path d="M12443 4499 c-16 -6 -23 -17 -23 -34 0 -16 -6 -25 -15 -25 -8 0 -15
-9 -15 -20 0 -11 7 -20 15 -20 12 0 15 -15 15 -74 0 -76 12 -125 33 -138 7 -4
27 -8 45 -8 25 0 32 4 32 19 0 14 -8 21 -27 23 -28 3 -28 3 -31 91 l-3 87 31
0 c23 0 30 4 30 20 0 15 -7 20 -29 20 -26 0 -30 4 -33 34 -3 30 -5 33 -25 25z"/>
<path d="M13558 4502 c-12 -2 -18 -13 -18 -33 0 -22 -5 -29 -20 -29 -13 0 -20
-7 -20 -20 0 -13 7 -20 20 -20 18 0 20 -7 20 -88 0 -109 14 -135 68 -130 45 4
52 31 10 36 -34 4 -40 24 -36 112 l3 65 33 3 c45 4 41 36 -5 40 -28 3 -32 7
-35 35 -2 25 -7 32 -20 29z"/>
<path d="M6820 4422 c-65 -32 -89 -125 -50 -190 23 -38 54 -52 115 -52 52 0
75 8 75 25 0 8 -18 12 -60 11 -64 -1 -95 17 -102 59 -3 19 3 20 91 23 l93 3
-7 36 c-9 50 -31 80 -67 92 -41 14 -47 14 -88 -7z m92 -39 c10 -9 18 -24 18
-35 0 -16 -9 -18 -70 -18 -62 0 -69 2 -63 18 18 51 77 69 115 35z"/>
<path d="M7147 4433 c-4 -3 -7 -62 -7 -130 l0 -123 25 0 c25 0 25 1 25 83 0
93 15 127 56 127 19 0 24 5 24 25 0 32 -20 32 -59 -1 l-31 -26 0 26 c0 24 -18
35 -33 19z"/>
<path d="M7363 4425 c-50 -22 -75 -69 -70 -134 3 -46 9 -59 36 -83 26 -23 40
-28 85 -28 63 0 86 7 86 25 0 10 -16 13 -61 12 -55 -2 -63 1 -85 26 -43 50
-35 57 72 57 l96 0 -6 28 c-14 57 -29 81 -61 96 -40 19 -51 19 -92 1z m91 -47
c29 -41 21 -48 -54 -48 -38 0 -70 4 -70 9 0 4 9 20 21 35 27 34 81 36 103 4z"/>
<path d="M7622 4425 c-53 -23 -81 -128 -51 -188 28 -55 103 -75 154 -41 l25
16 0 -71 c0 -64 2 -71 20 -71 19 0 20 7 20 175 0 96 1 178 2 183 1 4 -6 9 -16
10 -11 3 -19 -4 -23 -18 -5 -19 -7 -19 -22 -6 -26 23 -72 28 -109 11z m107
-51 c31 -39 29 -107 -4 -139 -45 -46 -107 -20 -121 50 -17 92 73 155 125 89z"/>
<path d="M7864 4425 c-4 -8 -4 -56 -2 -105 4 -77 7 -93 28 -115 27 -29 84 -34
116 -10 25 19 34 19 34 0 0 -8 8 -15 18 -15 16 0 17 12 15 128 -2 119 -3 127
-23 130 -19 3 -20 -2 -20 -86 0 -72 -4 -94 -18 -112 -20 -24 -66 -30 -85 -11
-7 7 -14 55 -17 109 -4 82 -8 97 -23 100 -9 2 -20 -4 -23 -13z"/>
<path d="M8212 4429 c-88 -26 -107 -182 -28 -230 47 -29 156 -25 156 6 0 8
-18 12 -61 11 -52 -1 -63 2 -80 23 -10 13 -19 32 -19 42 0 17 8 19 90 19 84 0
90 1 90 20 0 44 -29 90 -64 105 -40 17 -39 17 -84 4z m80 -46 c38 -45 32 -53
-42 -53 -77 0 -88 12 -50 50 25 25 72 26 92 3z"/>
<path d="M8459 4429 c-31 -12 -54 -58 -44 -89 4 -13 25 -30 50 -41 50 -22 68
-41 59 -62 -8 -22 -36 -29 -79 -21 -27 5 -35 3 -35 -9 0 -19 21 -27 69 -27 50
0 91 32 91 70 0 34 -19 55 -68 76 -44 18 -54 32 -40 57 8 16 17 18 49 14 63
-8 66 27 4 37 -17 3 -42 1 -56 -5z"/>
<path d="M8863 4433 c-12 -2 -36 -20 -53 -39 -26 -30 -30 -43 -30 -90 0 -50 3
-59 34 -90 31 -31 39 -34 93 -34 62 0 90 11 78 29 -4 8 -22 10 -50 6 -64 -10
-115 21 -115 71 0 11 19 14 90 14 l90 0 0 35 c0 64 -68 113 -137 98z m81 -55
c29 -41 21 -48 -54 -48 -38 0 -70 4 -70 9 0 4 9 20 21 35 27 34 81 36 103 4z"/>
<path d="M9460 4255 c0 -178 1 -185 20 -185 18 0 20 7 20 66 0 59 2 65 18 59
58 -26 128 -12 156 30 72 110 -26 254 -136 197 -35 -18 -37 -18 -41 -1 -3 11
-12 19 -21 19 -14 0 -16 -22 -16 -185z m169 119 c31 -39 29 -107 -4 -139 -29
-30 -64 -32 -96 -6 -20 16 -24 28 -24 76 0 48 4 60 24 76 34 27 75 24 100 -7z"/>
<path d="M9793 4429 c-18 -5 -33 -16 -33 -24 0 -11 10 -13 48 -8 37 4 52 2 65
-12 29 -29 20 -42 -34 -49 -64 -9 -99 -40 -99 -90 0 -25 6 -39 22 -50 28 -20
77 -20 105 -1 19 13 22 13 27 0 3 -8 15 -15 27 -15 21 0 21 3 17 100 -3 91 -6
103 -28 124 -30 29 -73 38 -117 25z m97 -149 c0 -55 -69 -93 -100 -55 -30 36
13 82 78 84 18 1 22 -4 22 -29z"/>
<path d="M10074 4431 c-11 -5 -33 -23 -47 -41 -45 -52 -36 -150 17 -192 26
-22 85 -23 112 -3 10 8 22 15 27 15 15 0 6 -49 -15 -75 -20 -26 -25 -27 -85
-22 -56 4 -64 3 -61 -12 4 -21 65 -36 113 -27 21 4 51 20 67 36 l28 28 0 141
c0 78 0 144 0 149 0 12 -35 8 -36 -5 -3 -25 -4 -26 -22 -10 -23 21 -70 29 -98
18z m95 -57 c31 -39 29 -107 -4 -139 -32 -33 -60 -31 -96 4 -33 33 -38 75 -14
121 25 48 82 55 114 14z"/>
<path d="M10353 4425 c-80 -35 -93 -180 -20 -226 43 -26 150 -24 155 4 3 16
-1 18 -41 12 -66 -10 -117 21 -117 71 0 11 19 14 90 14 90 0 90 0 90 25 0 42
-29 85 -65 101 -42 17 -51 17 -92 -1z m83 -33 c11 -7 34 -45 34 -56 0 -3 -31
-6 -70 -6 -56 0 -70 3 -70 15 0 38 72 70 106 47z"/>
<path d="M11034 4426 c-51 -23 -74 -61 -74 -123 0 -49 4 -59 34 -89 28 -28 42
-34 75 -34 84 0 131 49 131 135 0 85 -89 145 -166 111z m91 -43 c25 -25 37
-64 30 -100 -6 -35 -46 -73 -77 -73 -31 0 -78 54 -78 90 0 35 23 86 42 93 27
11 67 6 83 -10z"/>
<path d="M11310 4427 c-89 -31 -102 -190 -18 -233 28 -14 104 -19 132 -8 9 3
16 13 16 21 0 11 -9 13 -44 8 -65 -10 -116 21 -116 71 0 11 19 14 90 14 90 0
90 0 90 25 0 42 -29 85 -65 101 -40 16 -40 16 -85 1z m95 -57 c8 -16 15 -31
15 -35 0 -3 -31 -5 -70 -5 -56 0 -70 3 -70 15 0 27 38 55 75 55 28 0 37 -5 50
-30z"/>
<path d="M11564 4430 c-26 -10 -54 -48 -54 -70 0 -20 34 -52 74 -71 72 -34 50
-86 -31 -74 -34 5 -43 3 -43 -8 0 -18 21 -27 65 -27 47 0 84 19 91 47 11 43
-3 68 -53 94 -38 19 -48 29 -48 49 0 23 3 25 48 23 39 -1 47 2 47 17 0 12 -10
20 -31 24 -37 7 -38 7 -65 -4z"/>
<path d="M11840 4310 c0 -128 0 -130 23 -130 21 0 22 3 20 77 -2 102 19 143
73 143 8 0 23 -9 34 -20 17 -17 20 -33 20 -110 l0 -90 26 0 26 0 -4 100 c-3
87 -7 102 -27 124 -33 35 -66 40 -111 18 -37 -18 -39 -18 -43 0 -3 10 -12 18
-21 18 -14 0 -16 -18 -16 -130z"/>
<path d="M12183 4426 c-85 -38 -98 -176 -21 -230 27 -19 94 -21 127 -3 57 29
80 107 52 175 -24 57 -98 84 -158 58z m97 -46 c42 -42 36 -117 -12 -153 -52
-38 -113 7 -113 84 0 73 78 116 125 69z"/>
<path d="M12752 4423 c-42 -20 -65 -65 -66 -123 0 -84 48 -124 145 -118 43 2
55 7 57 21 3 16 -1 18 -41 12 -66 -10 -117 21 -117 71 0 11 19 14 90 14 90 0
90 0 90 25 0 42 -29 85 -65 101 -43 18 -52 17 -93 -3z m103 -53 c8 -16 15 -31
15 -35 0 -3 -31 -5 -70 -5 -77 0 -86 9 -50 48 14 14 33 22 55 22 28 0 37 -6
50 -30z"/>
<path d="M12938 4434 c-3 -3 12 -32 35 -64 l40 -59 -25 -38 c-67 -103 -63 -93
-35 -93 20 0 32 10 53 45 14 25 29 45 32 45 4 0 20 -20 35 -45 22 -34 35 -45
54 -45 28 0 32 -10 -35 93 l-25 38 41 59 c23 32 42 62 42 65 0 4 -10 5 -22 3
-14 -2 -35 -21 -55 -50 l-31 -48 -32 50 c-29 45 -55 61 -72 44z"/>
<path d="M13200 4311 l0 -131 25 0 26 0 -3 128 c-3 123 -4 127 -25 130 -23 3
-23 3 -23 -127z"/>
<path d="M13363 4425 c-34 -15 -50 -48 -38 -84 3 -12 29 -33 56 -46 50 -26 61
-49 37 -73 -15 -15 -53 -16 -78 -2 -14 7 -20 6 -24 -7 -9 -23 11 -33 67 -33
38 0 53 5 72 25 44 43 29 83 -45 120 -28 14 -50 31 -50 39 0 24 29 39 64 33
44 -7 59 19 20 33 -33 13 -42 12 -81 -5z"/>
<path d="M13695 4220 c-8 -26 6 -43 31 -38 13 2 19 12 19 28 0 34 -40 41 -50
10z"/>
<path d="M10003 1319 c-9 -9 -9 -18 -2 -31 9 -16 5 -20 -20 -29 -36 -13 -43
-39 -8 -33 12 2 3 -3 -19 -11 -23 -9 -61 -32 -85 -53 -24 -20 -39 -31 -35 -23
17 26 -16 31 -37 5 -18 -24 -20 -24 -38 -8 -15 13 -22 15 -31 6 -8 -8 -4 -14
15 -23 22 -10 27 -19 27 -51 0 -27 4 -38 15 -38 9 0 15 9 15 23 0 12 4 28 8
34 4 7 6 -16 4 -51 -5 -73 -9 -70 118 -81 89 -8 190 11 280 51 64 29 65 30 51
67 -8 22 -7 24 10 20 21 -6 24 8 8 39 -9 16 -7 26 9 48 20 26 20 40 0 40 -5 0
-13 -12 -18 -26 l-10 -26 -19 24 c-15 18 -22 20 -32 11 -9 -9 -6 -19 11 -45
l22 -33 -24 26 c-47 55 -97 79 -162 81 l-61 2 53 3 c61 5 67 24 11 34 -19 4
-28 7 -21 8 18 1 11 45 -8 49 -9 1 -21 -3 -27 -9z m-9 -185 c24 -24 20 -80 -6
-98 -12 -9 -32 -16 -44 -16 -25 0 -64 43 -64 71 0 48 80 78 114 43z m197 -5
c9 -18 7 -25 -9 -41 -35 -36 -85 2 -60 46 13 23 55 20 69 -5z"/>
<path d="M7222 1198 c-7 -7 -12 -36 -12 -66 0 -53 0 -53 -22 -38 -48 34 -127
14 -153 -39 -30 -64 -15 -144 34 -189 26 -23 96 -25 118 -3 14 13 17 13 34 -4
15 -15 24 -17 39 -9 19 10 20 22 20 173 0 161 -5 187 -35 187 -6 0 -16 -5 -23
-12z m-40 -155 c38 -44 28 -128 -17 -139 -51 -13 -85 38 -70 106 10 48 58 66
87 33z"/>
<path d="M7842 1198 c-30 -30 1 -73 36 -51 23 14 25 29 7 47 -20 19 -27 20
-43 4z"/>
<path d="M8947 1204 c-4 -4 -7 -34 -7 -67 l0 -59 -25 16 c-34 22 -97 20 -128
-4 -59 -47 -50 -196 14 -231 30 -16 85 -14 113 5 22 14 25 14 30 0 4 -9 15
-14 28 -12 23 3 23 4 23 178 0 169 -1 175 -20 178 -12 2 -24 0 -28 -4z m-37
-164 c24 -24 27 -86 4 -118 -34 -49 -99 -11 -99 58 0 68 53 102 95 60z"/>
<path d="M9151 1196 c-8 -9 -11 -65 -9 -177 3 -163 3 -164 26 -167 14 -2 29 4
37 15 8 10 15 13 15 6 0 -7 16 -17 36 -22 45 -12 95 5 119 43 38 58 27 157
-22 196 -31 24 -90 26 -121 4 -22 -15 -22 -15 -22 38 0 69 -29 100 -59 64z
m143 -142 c25 -10 39 -68 26 -109 -21 -63 -93 -56 -106 9 -13 71 27 121 80
100z"/>
<path d="M10463 1195 c-12 -9 -25 -31 -29 -50 -3 -19 -12 -35 -18 -35 -18 0
-35 -21 -29 -36 3 -8 14 -14 24 -14 17 0 19 -8 19 -94 0 -73 4 -98 16 -110 37
-38 53 -9 56 105 3 89 4 94 26 97 31 5 29 40 -3 48 -15 4 -25 13 -25 24 0 20
23 32 43 24 8 -3 20 2 27 11 31 38 -59 63 -107 30z"/>
<path d="M11575 1194 c-9 -9 -14 -21 -12 -27 6 -18 33 -31 51 -24 21 8 21 53
0 61 -21 8 -20 8 -39 -10z"/>
<path d="M11692 1198 c-8 -8 -12 -61 -12 -175 0 -143 2 -163 17 -172 30 -16
53 5 53 48 0 22 6 44 15 51 18 15 15 18 50 -40 36 -59 53 -72 76 -59 27 14 24
27 -20 100 l-39 64 30 32 c19 19 28 38 25 47 -11 29 -47 17 -92 -31 l-45 -48
0 86 c0 82 -9 109 -35 109 -6 0 -16 -5 -23 -12z"/>
<path d="M7344 1076 c-31 -31 -34 -39 -34 -95 0 -52 4 -65 28 -91 15 -18 43
-35 65 -39 68 -16 147 17 147 61 0 30 -27 32 -61 4 -17 -14 -38 -26 -48 -26
-24 0 -58 26 -64 50 -5 19 -1 20 79 20 80 0 85 1 96 25 27 59 -39 125 -125
125 -42 0 -54 -5 -83 -34z m130 -38 c24 -34 20 -38 -39 -38 -48 0 -55 3 -55
20 0 41 69 54 94 18z"/>
<path d="M7615 1098 c-28 -16 -35 -28 -35 -64 0 -38 20 -57 87 -78 59 -20 70
-30 53 -51 -19 -23 -57 -18 -83 11 -28 30 -61 29 -65 -2 -9 -64 143 -93 203
-38 30 28 33 73 7 98 -11 9 -47 26 -80 37 -65 22 -72 29 -47 49 16 14 37 7 81
-25 17 -12 23 -13 38 -2 58 43 -90 104 -159 65z"/>
<path d="M7834 1097 c-2 -7 -3 -65 -2 -128 l3 -114 26 -3 c20 -2 28 2 33 20
10 38 7 198 -4 219 -12 22 -48 26 -56 6z"/>
<path d="M7960 1082 c-78 -78 -32 -232 69 -232 20 0 47 7 59 16 20 14 22 14
22 -3 0 -57 -64 -81 -113 -43 -42 33 -75 22 -62 -21 14 -44 135 -65 194 -34
44 22 52 55 49 205 -3 121 -5 135 -21 138 -10 2 -26 -3 -35 -11 -15 -13 -20
-14 -36 -1 -34 25 -94 18 -126 -14z m130 -42 c34 -34 23 -107 -20 -130 -42
-23 -87 33 -75 92 13 57 58 75 95 38z"/>
<path d="M8227 1103 c-4 -3 -7 -59 -7 -124 0 -107 2 -119 19 -129 35 -18 51
12 51 93 0 77 16 117 49 117 33 0 41 -22 41 -106 0 -93 15 -123 51 -104 17 10
19 22 19 111 0 93 -2 102 -25 124 -28 29 -88 34 -122 10 -19 -13 -22 -13 -27
0 -5 15 -37 20 -49 8z"/>
<path d="M8540 1097 c-52 -26 -77 -126 -45 -187 23 -45 53 -60 116 -60 47 0
63 5 88 26 58 48 29 82 -34 40 -21 -14 -46 -26 -56 -26 -17 0 -59 44 -59 61 0
5 35 9 78 9 47 0 83 5 90 12 23 23 14 68 -22 104 -29 29 -41 34 -82 34 -27 0
-60 -6 -74 -13z m108 -55 c24 -31 14 -42 -37 -42 -60 0 -70 12 -37 45 26 26
51 25 74 -3z"/>
<path d="M9407 1103 c-14 -13 -6 -47 33 -140 22 -53 40 -104 40 -113 0 -22
-24 -42 -53 -45 -12 -1 -26 -3 -30 -4 -5 0 -7 -11 -5 -23 2 -19 10 -24 46 -26
26 -2 53 3 66 11 26 17 142 307 133 332 -8 18 -41 20 -55 3 -5 -7 -20 -46 -33
-85 -13 -40 -26 -73 -29 -73 -3 0 -16 33 -29 73 -13 39 -28 78 -33 85 -11 13
-40 16 -51 5z"/>
<path d="M10572 1098 c-13 -13 -17 -202 -6 -232 9 -22 51 -20 64 3 5 11 10 51
10 88 0 79 9 93 61 93 42 0 57 21 33 45 -21 20 -80 20 -92 -1 -8 -15 -10 -15
-15 0 -7 19 -38 21 -55 4z"/>
<path d="M10775 1077 c-79 -79 -39 -218 65 -227 62 -5 92 1 115 25 49 48 17
85 -36 41 -17 -14 -38 -26 -48 -26 -26 0 -61 29 -61 51 0 17 7 19 69 19 91 0
101 5 101 47 0 67 -43 103 -126 103 -39 0 -51 -5 -79 -33z m129 -39 c24 -34
20 -38 -39 -38 -57 0 -63 6 -45 41 15 27 64 25 84 -3z"/>
<path d="M11055 1088 c-52 -41 -68 -113 -39 -174 22 -45 60 -64 129 -64 46 0
60 4 80 25 14 13 25 31 25 40 0 25 -29 29 -53 7 -12 -11 -32 -23 -45 -27 -29
-9 -72 18 -72 45 0 18 7 20 69 20 38 0 76 3 85 6 18 7 22 64 6 95 -27 50 -136
66 -185 27z m124 -57 c14 -26 5 -31 -51 -31 -45 0 -49 2 -46 22 7 48 73 54 97
9z"/>
<path d="M11284 1097 c-2 -7 -3 -87 -2 -177 l3 -165 25 0 c24 0 25 3 28 61 l3
61 34 -17 c94 -48 185 48 155 161 -21 79 -90 110 -160 74 -25 -13 -29 -13 -34
0 -7 18 -45 20 -52 2z m158 -54 c24 -21 25 -99 1 -125 -37 -41 -93 -5 -93 60
0 69 49 104 92 65z"/>
<path d="M11572 1098 c-13 -13 -17 -202 -6 -232 9 -22 51 -20 64 3 5 11 10 61
10 111 0 50 -5 100 -10 111 -12 21 -40 25 -58 7z"/>
<path d="M12124 1100 c-41 -16 -64 -59 -64 -116 0 -96 37 -134 132 -134 78 0
131 46 106 93 -13 25 -34 21 -58 -13 -42 -59 -110 -28 -110 50 0 74 54 104
100 55 13 -14 32 -25 42 -25 43 0 29 67 -19 89 -28 13 -99 14 -129 1z"/>
<path d="M12394 1101 c-58 -25 -86 -106 -60 -174 20 -53 60 -79 123 -79 115 0
172 137 94 225 -23 25 -36 31 -82 33 -30 2 -64 0 -75 -5z m100 -63 c35 -50 11
-138 -38 -138 -30 0 -43 11 -56 45 -29 77 51 155 94 93z"/>
<path d="M12617 1103 c-4 -3 -7 -59 -7 -124 0 -101 2 -119 17 -128 11 -6 24
-6 35 0 15 8 18 23 18 93 0 71 3 86 21 102 15 14 24 16 37 8 14 -9 18 -29 20
-100 3 -97 16 -123 53 -103 14 7 19 21 19 53 0 82 12 136 32 147 36 19 48 -5
48 -97 0 -92 15 -123 50 -104 24 13 30 32 30 98 -1 75 -15 133 -36 149 -24 17
-85 16 -109 -1 -17 -12 -22 -12 -39 0 -24 17 -79 18 -108 3 -14 -8 -23 -8 -31
0 -12 12 -40 15 -50 4z"/>
<path d="M10220 994 c-82 -42 -163 -57 -287 -52 -62 3 -113 3 -113 1 0 -18 36
-67 67 -90 34 -26 42 -28 137 -28 85 0 108 4 142 22 52 28 90 72 104 121 17
61 18 61 -50 26z"/>
<path d="M11952 908 c-16 -16 -15 -33 3 -51 19 -19 52 -11 60 15 12 37 -35 64
-63 36z"/>
</g>
</svg>
